<?xml version="1.0" encoding="UTF-8"?>
<svg id="Layer_1" data-name="Layer 1" xmlns="http://www.w3.org/2000/svg" xmlns:xlink="http://www.w3.org/1999/xlink" viewBox="0 0 546.25 240">
  <defs>
    <style>
      .cls-1 {
        stroke-width: 64px;
      }

      .cls-1, .cls-2, .cls-3 {
        fill: none;
      }

      .cls-1, .cls-3 {
        stroke: #000;
        stroke-linecap: square;
        stroke-miterlimit: 10;
      }

      .cls-4 {
        clip-path: url(#clippath);
      }

      .cls-5 {
        filter: url(#luminosity-noclip);
      }

      .cls-6 {
        mask: url(#mask-1);
      }

      .cls-7 {
        mask: url(#mask);
      }

      .cls-3 {
        stroke-width: 96px;
      }

      .cls-8 {
        filter: url(#luminosity-noclip-2);
      }
    </style>
    <clipPath id="clippath">
      <rect class="cls-2" x="0" y="0" width="546.25" height="240"/>
    </clipPath>
    <filter id="luminosity-noclip" x="187.34" y="-73.66" width="390.67" height="390.67" color-interpolation-filters="sRGB" filterUnits="userSpaceOnUse">
      <feFlood flood-color="#fff" result="bg"/>
      <feBlend in="SourceGraphic" in2="bg"/>
    </filter>
    <mask id="mask" x="187.34" y="-73.66" width="390.67" height="390.67" maskUnits="userSpaceOnUse">
      <g class="cls-5">
        <path class="cls-3" d="m255.23-5.77l254.9,254.9"/>
      </g>
    </mask>
    <filter id="luminosity-noclip-2" x="-120" y="0" width="420" height="240" color-interpolation-filters="sRGB" filterUnits="userSpaceOnUse">
      <feFlood flood-color="#fff" result="bg"/>
      <feBlend in="SourceGraphic" in2="bg"/>
    </filter>
    <mask id="mask-1" x="-120" y="0" width="420" height="240" maskUnits="userSpaceOnUse">
      <g class="cls-8">
        <polygon points="-120 240 0 240 120 120 120 120 0 0 -120 0 -120 240"/>
      </g>
    </mask>
  </defs>
  <g id="logo-alt">
    <g class="cls-4">
      <g id="X">
        <polyline class="cls-1" points="261 0 381 120 501 240"/>
        <g class="cls-7">
          <polyline class="cls-1" points="261 240 381 120 501 0"/>
        </g>
      </g>
      <g class="cls-6">
        <g id="D">
          <path d="m153.49,64l56,56-56,56h-89.49V64h89.49M180,0H0v240h180l120-120h0L180,0h0Z"/>
        </g>
      </g>
    </g>
  </g>
</svg>